<svg xmlns="http://www.w3.org/2000/svg" viewBox="0 0 160 200" width="160" height="200">
  <!-- Bike frame -->
  <g stroke="#2D6A7A" stroke-width="2.5" fill="none" stroke-linecap="round" stroke-linejoin="round">
    <circle cx="40" cy="155" r="32" stroke="#2D6A7A" stroke-width="2"/>
    <circle cx="120" cy="155" r="32" stroke="#2D6A7A" stroke-width="2"/>
    <line x1="40" y1="123" x2="40" y2="187"/>
    <line x1="8" y1="155" x2="72" y2="155"/>
    <line x1="17" y1="132" x2="63" y2="178"/>
    <line x1="17" y1="178" x2="63" y2="132"/>
    <line x1="120" y1="123" x2="120" y2="187"/>
    <line x1="88" y1="155" x2="152" y2="155"/>
    <line x1="97" y1="132" x2="143" y2="178"/>
    <line x1="97" y1="178" x2="143" y2="132"/>
    <line x1="80" y1="105" x2="40" y2="155"/>
    <line x1="80" y1="105" x2="120" y2="155"/>
    <line x1="80" y1="105" x2="60" y2="105"/>
    <line x1="60" y1="105" x2="40" y2="155"/>
    <line x1="70" y1="90" x2="80" y2="105"/>
    <line x1="62" y1="88" x2="78" y2="88"/>
    <line x1="100" y1="95" x2="120" y2="105"/>
    <line x1="95" y1="88" x2="108" y2="88"/>
    <circle cx="80" cy="140" r="14" stroke-width="1.5"/>
    <circle cx="80" cy="140" r="5"/>
  </g>
  <!-- Rider silhouette -->
  <g fill="#2D6A7A" opacity="0.85">
    <!-- Head with helmet suggestion -->
    <circle cx="108" cy="58" r="13"/>
    <ellipse cx="108" cy="50" rx="15" ry="6" opacity="0.5"/>
    <!-- Body -->
    <ellipse cx="98" cy="82" rx="9" ry="20"/>
    <!-- Arms -->
    <path d="M102 72 Q114 76 118 86" stroke="#2D6A7A" stroke-width="4.5" fill="none" stroke-linecap="round"/>
    <!-- Legs -->
    <path d="M92 100 Q87 118 82 140" stroke="#2D6A7A" stroke-width="5" fill="none" stroke-linecap="round"/>
    <path d="M96 100 Q100 118 102 138" stroke="#2D6A7A" stroke-width="5" fill="none" stroke-linecap="round"/>
  </g>
  <text x="80" y="196" text-anchor="middle" font-family="Georgia,serif" font-style="italic" font-size="11" fill="#2D6A7A" opacity="0.7">James</text>
</svg>
